<svg width="50" height="50" viewBox="0 0 50 50" fill="none" xmlns="http://www.w3.org/2000/svg">
<path d="M5.77965 41.2206L5.77932 41.221L2.40707 44.5806L2.40674 44.5809C1.54012 45.4478 1.28309 46.7398 1.75215 47.8735L1.75217 47.8735C2.22167 49.0089 3.31776 49.7429 4.54687 49.7443L13.3994 49.75H13.3995H13.4028C14.6342 49.75 15.7906 49.2709 16.6615 48.4L16.6616 48.3999C17.5336 47.5283 18.0127 46.3709 18.0119 45.1379L18.007 36.2842C18.0056 35.0559 17.2716 33.9597 16.1362 33.4902L16.1362 33.4902C15.0023 33.0211 13.7102 33.2782 12.8433 34.1451L12.8301 34.1584L12.8281 34.1604L12.0641 34.9419L12.064 34.942C11.4061 35.6142 11.418 36.6922 12.0906 37.3503C12.6728 37.9198 13.5597 37.9874 14.2144 37.558L14.6012 37.3042L14.6015 37.7669L14.6057 45.1399V45.1401C14.6057 45.5743 14.3842 45.8608 14.2529 45.9916M5.77965 41.2206L14.0765 45.8145M5.77965 41.2206C5.95024 41.05 5.93742 40.7875 5.7994 40.6182L5.77965 41.2206ZM14.2529 45.9916L14.0765 45.8145M14.2529 45.9916C14.2531 45.9914 14.2533 45.9912 14.2536 45.991L14.0765 45.8145M14.2529 45.9916C14.122 46.1228 13.836 46.3438 13.4028 46.3438H13.4027H13.4027H13.4027H13.4027H13.4026H13.4026H13.4026H13.4025H13.4025H13.4025H13.4025H13.4024H13.4024H13.4024H13.4023H13.4023H13.4023H13.4023H13.4022H13.4022H13.4022H13.4021H13.4021H13.4021H13.4021H13.402H13.4019L6.07344 46.3388L5.46882 46.3384L5.89717 45.9117L8.18565 43.632L8.36242 43.8087M14.0765 45.8145C13.9723 45.919 13.7461 46.0938 13.4028 46.0938H13.402L6.4276 46.089L6.25004 46.2659L6.07361 46.0888L6.07377 45.8388L6.3244 45.839L8.36242 43.8087M8.36242 43.8087L8.18599 43.6316L8.18574 43.6319M8.36242 43.8087C9.85512 42.3161 9.97185 39.9517 8.63441 38.3095M8.18574 43.6319L25.0006 3.90625C13.4753 3.90625 4.01672 13.2694 3.90724 24.7948C3.8607 29.7092 5.53955 34.5089 8.63441 38.3095M8.18574 43.6319C9.58718 42.2304 9.69745 40.0107 8.44057 38.4674L8.63441 38.3095M8.18574 43.6319L5.79919 40.6179C2.16726 36.1574 0.196596 30.5257 0.251355 24.7601L0.00136668 24.7578L0.251355 24.7601C0.379375 11.2381 11.4791 0.25 25.0006 0.25H25.0007H25.0008H25.0009H25.0009H25.001H25.0011H25.0012H25.0012H25.0013H25.0014H25.0015H25.0016H25.0016H25.0017H25.0018H25.0019H25.0019H25.002H25.0021H25.0022H25.0023H25.0023H25.0024H25.0025H25.0026H25.0026H25.0027H25.0028H25.0029H25.003H25.003H25.0031H25.0032H25.0033H25.0033H25.0034H25.0035H25.0036H25.0037H25.0037H25.0038H25.0039H25.004H25.004H25.0041H25.0042H25.0043H25.0043H25.0044H25.0045H25.0046H25.0047H25.0047H25.0048H25.0049H25.005H25.005H25.0051H25.0052H25.0053H25.0053H25.0054H25.0055H25.0056H25.0057H25.0057H25.0058H25.0059H25.006H25.006H25.0061H25.0062H25.0063H25.0063H25.0064H25.0065H25.0066H25.0066H25.0067H25.0068H25.0069H25.007H25.007H25.0071H25.0072H25.0073H25.0073H25.0074H25.0075H25.0076H25.0076H25.0077H25.0078H25.0079H25.0079H25.008H25.0081H25.0082H25.0083H25.0083H25.0084H25.0085H25.0086H25.0086H25.0087H25.0088H25.0089H25.0089H25.009H25.0091H25.0092H25.0092H25.0093H25.0094H25.0095H25.0095H25.0096H25.0097H25.0098H25.0098H25.0099H25.01H25.0101H25.0101H25.0102H25.0103H25.0104H25.0105H25.0105H25.0106H25.0107H25.0108H25.0108H25.0109H25.011H25.0111H25.0111H25.0112H25.0113H25.0114H25.0114H25.0115H25.0116H25.0117H25.0117H25.0118H25.0119H25.012H25.012H25.0121H25.0122H25.0123H25.0123H25.0124H25.0125H25.0126H25.0126H25.0127H25.0128H25.0129H25.0129H25.013H25.0131H25.0132H25.0132H25.0133H25.0134H25.0135H25.0135H25.0136H25.0137H25.0138H25.0138H25.0139H25.014H25.0141H25.0141H25.0142H25.0143H25.0144H25.0145H25.0145H25.0146H25.0147H25.0147H25.0148H25.0149H25.015H25.0151H25.0151H25.0152H25.0153H25.0154H25.0154H25.0155H25.0156H25.0157H25.0157H25.0158H25.0159H25.016H25.016H25.0161H25.0162H25.0163H25.0163H25.0164H25.0165H25.0166H25.0166H25.0167H25.0168H25.0169H25.0169H25.017H25.0171H25.0172H25.0172H25.0173H25.0174H25.0175H25.0175H25.0176H25.0177H25.0178H25.0178H25.0179H25.018H25.0181H25.0181H25.0182H25.0183H25.0184H25.0184H25.0185H25.0186H25.0187H25.0187H25.0188H25.0189H25.0189H25.019H25.0191H25.0192H25.0192H25.0193H25.0194H25.0195H25.0195H25.0196H25.0197H25.0198H25.0198H25.0199H25.02H25.0201H25.0201H25.0202H25.0203H25.0204H25.0204H25.0205H25.0206H25.0207H25.0207H25.0208H25.0209H25.021H25.021H25.0211H25.0212H25.0213H25.0213H25.0214H25.0215H25.0216H25.0216H25.0217H25.0218H25.0219H25.0219H25.022H25.0221H25.0222H25.0222H25.0223H25.0224H25.0225H25.0225H25.0226H25.0227H25.0228H25.0228H25.0229H25.023H25.0231H25.0231H25.0232H25.0233H25.0234H25.0234H25.0235H25.0236H25.0237H25.0237H25.0238H25.0239H25.024H25.024H25.0241H25.0242H25.0243H25.0243H25.0244H25.0245H25.0246H25.0246H25.0247H25.0248H25.0249H25.0249H25.025H25.0251H25.0252H25.0252H25.0253H25.0254H25.0255H25.0255H25.0256H25.0257H25.0258H25.0258H25.0259H25.026H25.0261H25.0261H25.0262H25.0263H25.0264H25.0264H25.0265H25.0266H25.0267H25.0267H25.0268H25.0269H25.027H25.0271H25.0271H25.0272H25.0273H25.0274H25.0274H25.0275H25.0276H25.0277H25.0277H25.0278H25.0279H25.028H25.028H25.0281H25.0282H25.0283H25.0283H25.0284H25.0285H25.0286H25.0286H25.0287H25.0288H25.0289H25.0289H25.029H25.0291H25.0292H25.0292H25.0293H25.0294H25.0295H25.0295H25.0296H25.0297H25.0298H25.0298H25.0299H25.03H25.0301H25.0301H25.0302H25.0303H25.0304H25.0305H25.0305H25.0306H25.0307H25.0308H25.0308H25.0309H25.031H25.0311H25.0311H25.0312H25.0313H25.0314H25.0314H25.0315H25.0316H25.0317H25.0317H25.0318H25.0319H25.032H25.032H25.0321H25.0322H25.0323H25.0324H25.0324H25.0325H25.0326H25.0327H25.0327H25.0328H25.0329H25.033H25.033H25.0331H25.0332H25.0333H25.0333H25.0334H25.0335H25.0336H25.0337H25.0337H25.0338H25.0339H25.034H25.034H25.0341H25.0342H25.0343H25.0343H25.0344H25.0345H25.0346H25.0346H25.0347H25.0348H25.0349H25.035H25.035H25.0351H25.0352H25.0353H25.0353H25.0354H25.0355H25.0356H25.0356H25.0357H25.0358H25.0359H25.036H25.036H25.0361H25.0362H25.0363H25.0363H25.0364H25.0365H25.0366H25.0366H25.0367H25.0368H25.0369H25.037H25.037H25.0371H25.0372H25.0373H25.0373H25.0374H25.0375H25.0376H25.0377H25.0377H25.0378H25.0379H25.038H25.038H25.0381H25.0382H25.0383H25.0384H25.0384H25.0385H25.0386H25.0387H25.0387H25.0388H25.0389H25.039H25.0391H25.0391H25.0392H25.0393H25.0393C31.6426 0.260247 37.8478 2.83891 42.514 7.51193C47.1806 12.1854 49.7503 18.3955 49.7503 25C49.7503 29.8847 48.3004 34.6357 45.5566 38.7397L45.5565 38.7397C45.034 39.5217 43.9759 39.7316 43.1941 39.209C42.4124 38.6861 42.2023 37.6283 42.7251 36.8467L42.7252 36.8466C45.0922 33.3061 46.344 29.2093 46.344 25C46.344 13.249 36.7844 3.67439 25.0338 3.65625H25.0334H25.0006C13.3382 3.65625 3.76803 13.1298 3.65725 24.7924C3.61016 29.765 5.30875 34.6214 8.44056 38.4673L8.63441 38.3095M23.1723 21.8339L23.2971 21.7617V21.6175V9.76562C23.2971 8.8249 24.0595 8.0625 25.0002 8.0625C25.941 8.0625 26.7034 8.8249 26.7034 9.76562V21.6175V21.7617L26.8281 21.8339C27.9215 22.4667 28.6565 23.6472 28.6565 25C28.6565 25.3273 28.6126 25.6444 28.5318 25.9468L28.4946 26.0861L28.5966 26.1881L33.7727 31.3642L33.7728 31.3643C34.438 32.0292 34.438 33.1075 33.7728 33.7725L33.7727 33.7726C33.4404 34.1052 33.0048 34.2715 32.5686 34.2715C32.1321 34.2715 31.6968 34.1052 31.3645 33.7726L31.3644 33.7725L26.1883 28.5967L26.0863 28.4948L25.947 28.532C25.6448 28.6127 25.3278 28.6562 25.0002 28.6562C22.9811 28.6562 21.344 27.0191 21.344 25C21.344 23.6472 22.079 22.4667 23.1723 21.8339ZM37.8064 46.1832L37.8064 46.1832C33.9546 48.5165 29.5263 49.75 25.0002 49.75C24.0595 49.75 23.2971 48.9876 23.2971 48.0469C23.2971 47.1062 24.0595 46.3438 25.0002 46.3438C28.9034 46.3438 32.7214 45.2808 36.0417 43.2699L35.9122 43.0561L36.0417 43.2699C36.846 42.7826 37.8932 43.0397 38.3809 43.8441C38.8682 44.6488 38.611 45.6959 37.8064 46.1832Z" fill="#EBE7FF" stroke="white" stroke-width="0.5"/>
</svg>
