<svg width="16" height="16" viewBox="0 0 16 16" fill="none" xmlns="http://www.w3.org/2000/svg">
<rect width="16" height="16" rx="5" fill="white"/>
<g clip-path="url(#clip0)">
<path d="M8.00187 10.1998L4.63147 6.82945L4.63147 6.82944C4.45269 6.65069 4.16285 6.65069 3.98407 6.82944L3.98403 6.82947C3.80533 7.00826 3.80531 7.29807 3.98404 7.47685L3.98406 7.47686L7.67816 11.171L7.67818 11.171C7.85695 11.3497 8.14678 11.3497 8.32556 11.171L8.32557 11.171L12.0197 7.47686L12.0197 7.47688L12.0215 7.475C12.1972 7.29312 12.1921 7.00328 12.0102 6.82762L12.0102 6.82761C11.8328 6.65628 11.5515 6.65627 11.3741 6.82762L11.3741 6.8276L11.3723 6.82945L8.00187 10.1998Z" fill="#50CAFF" stroke="#50CAFF" stroke-width="0.3"/>
</g>
<defs>
<clipPath id="clip0">
<rect width="10" height="10" fill="white" transform="translate(3 14) rotate(-90)"/>
</clipPath>
</defs>
</svg>
