<svg width="18" height="14" viewBox="0 0 18 14" fill="none" xmlns="http://www.w3.org/2000/svg">
<path d="M17.5447 5.46517C17.1714 4.89191 16.118 3.42023 14.4034 2.13821C12.6653 0.838659 10.8527 0.179688 9.01579 0.179688C7.18151 0.179688 5.3673 0.836866 3.62354 2.13291C1.9013 3.41295 0.839473 4.8828 0.462878 5.45533C-0.154293 6.39361 -0.154293 7.60612 0.462878 8.54441C0.839473 9.11697 1.9013 10.5868 3.62354 11.8669C5.3673 13.1629 7.18148 13.8201 9.01579 13.8201C11.8397 13.8201 14.1106 12.2455 15.5182 10.9246C15.8014 10.6589 15.8156 10.214 15.5499 9.9308C15.2841 9.64758 14.8392 9.63345 14.556 9.89916C13.3334 11.0464 11.3797 12.4139 9.01573 12.4139C5.6019 12.4139 2.77174 9.49588 1.63763 7.77167C1.32924 7.30283 1.32924 6.69701 1.63763 6.22817C2.77174 4.50396 5.6019 1.58598 9.01573 1.58598C12.4294 1.58598 15.2423 4.50677 16.3663 6.2326C16.6698 6.69874 16.6698 7.30111 16.3663 7.76724C16.1544 8.09265 16.2464 8.5282 16.5718 8.74013C16.8972 8.95201 17.3328 8.86005 17.5447 8.5346C18.1518 7.60229 18.1518 6.39745 17.5447 5.46517Z" fill="white"/>
</svg>
