<svg width="40" height="50" viewBox="0 0 40 50" fill="none" xmlns="http://www.w3.org/2000/svg">
<path d="M18.1335 37.5V32.6172H13.2507C12.1722 32.6172 11.2975 31.7429 11.2975 30.6641C11.2975 29.5853 12.1722 28.7109 13.2507 28.7109H18.1335V23.8281C18.1335 22.7493 19.0082 21.875 20.0866 21.875C21.1654 21.875 22.0397 22.7493 22.0397 23.8281V28.7109H26.9225C28.0013 28.7109 28.8757 29.5853 28.8757 30.6641C28.8757 31.7429 28.0013 32.6172 26.9225 32.6172H22.0397V37.5C22.0397 38.5788 21.1654 39.4531 20.0866 39.4531C19.0082 39.4531 18.1335 38.5788 18.1335 37.5ZM35.9069 32.5195V12.6953C35.9069 10.5415 34.1548 8.78906 32.0007 8.78906H25.8483V9.76562C25.8483 12.9967 23.22 15.625 19.9889 15.625C16.7583 15.625 14.1296 12.9967 14.1296 9.76562V8.78906H7.98828C5.83412 8.78906 4.08203 10.5415 4.08203 12.6953V42.1875C4.08203 44.3413 5.83412 46.0938 7.98828 46.0938H32.0007C34.1548 46.0938 35.9069 44.3413 35.9069 42.1875C35.9069 41.1087 36.7816 40.2344 37.86 40.2344C38.9388 40.2344 39.8132 41.1087 39.8132 42.1875C39.8132 46.4954 36.3086 50 32.0007 50H7.98828C3.68034 50 0.175781 46.4954 0.175781 42.1875V12.6953C0.175781 8.38737 3.68034 4.88281 7.98828 4.88281H14.1299V1.95312C14.1299 0.874329 15.0043 0 16.0831 0H23.8956C24.974 0 25.8487 0.874329 25.8487 1.95312V4.88281H32.001C36.3086 4.88281 39.8135 8.38737 39.8135 12.6953V32.5195C39.8135 33.5983 38.9388 34.4727 37.8604 34.4727C36.7816 34.4727 35.9069 33.5983 35.9069 32.5195ZM21.9421 3.90625H18.0358V9.76562C18.0358 10.8425 18.912 11.7188 19.9889 11.7188C21.0658 11.7188 21.9421 10.8425 21.9421 9.76562V3.90625Z" fill="#EBE7FF"/>
</svg>
